<svg xmlns="http://www.w3.org/2000/svg" xmlns:xlink="http://www.w3.org/1999/xlink" width="500" zoomAndPan="magnify" viewBox="0 0 375 374.999991" height="500" preserveAspectRatio="xMidYMid meet" version="1.0"><defs><filter x="0%" y="0%" width="100%" height="100%" id="c073a74c5a"><feColorMatrix values="0 0 0 0 1 0 0 0 0 1 0 0 0 0 1 0 0 0 1 0" color-interpolation-filters="sRGB"/></filter><g/><mask id="792aa11019"><g filter="url(#c073a74c5a)"><rect x="-37.5" width="450" fill="#000000" y="-37.499999" height="449.999989" fill-opacity="0.32"/></g></mask><clipPath id="a2939526d3"><path d="M 0.398438 0.277344 L 205.898438 0.277344 L 205.898438 202.027344 L 0.398438 202.027344 Z M 0.398438 0.277344 " clip-rule="nonzero"/></clipPath><clipPath id="1d6fd27d20"><rect x="0" width="207" y="0" height="203"/></clipPath><mask id="a03ad7852a"><g filter="url(#c073a74c5a)"><rect x="-37.5" width="450" fill="#000000" y="-37.499999" height="449.999989" fill-opacity="0.33"/></g></mask><clipPath id="3a1d60cb83"><path d="M 0.113281 0.238281 L 79.613281 0.238281 L 79.613281 115.679688 L 0.113281 115.679688 Z M 0.113281 0.238281 " clip-rule="nonzero"/></clipPath><clipPath id="c8762ed6c0"><rect x="0" width="80" y="0" height="116"/></clipPath></defs><g mask="url(#792aa11019)"><g transform="matrix(1, 0, 0, 1, 83, 71)"><g clip-path="url(#1d6fd27d20)"><g clip-path="url(#a2939526d3)"><path fill="#dcc053" d="M 116.660156 202.019531 C 116.660156 202.019531 105.609375 188.53125 79.808594 184.160156 C 54.695312 178.292969 24.3125 153.730469 16.515625 119.253906 C 7.484375 85.09375 22.679688 49.390625 42.109375 32.703125 C 61.40625 15.175781 79.488281 12.449219 79.125 12.214844 C 79.566406 12.734375 61.628906 15.859375 42.832031 33.460938 C 23.867188 50.25 9.433594 85.488281 18.589844 118.726562 C 26.546875 152.296875 56.289062 175.804688 80.585938 181.269531 C 86.414062 182.167969 91.59375 183.558594 96.144531 185.191406 C 113.289062 191.277344 119.882812 199.144531 119.882812 199.144531 Z M 89.628906 202.019531 C 89.628906 202.019531 100.679688 188.53125 126.476562 184.160156 C 151.59375 178.292969 181.972656 153.730469 189.761719 119.253906 C 198.796875 85.101562 183.59375 49.398438 164.167969 32.703125 C 144.871094 15.175781 126.792969 12.449219 127.152344 12.214844 C 126.722656 12.734375 144.652344 15.859375 163.445312 33.460938 C 182.414062 50.25 196.84375 85.488281 187.6875 118.726562 C 179.742188 152.296875 149.988281 175.804688 125.691406 181.269531 C 119.867188 182.167969 114.679688 183.558594 110.136719 185.191406 C 92.992188 191.277344 86.394531 199.144531 86.394531 199.144531 Z M 73.976562 176.285156 C 76.335938 180.085938 83.378906 183.757812 83.378906 183.757812 C 83.378906 183.757812 84.636719 177.875 81.71875 170.859375 C 79.394531 165.234375 72.359375 162.820312 72.359375 162.820312 C 72.359375 162.820312 70.667969 170.945312 73.976562 176.285156 Z M 60.023438 193.671875 C 60.023438 193.671875 67.136719 195.859375 72.324219 192.6875 C 78.804688 188.726562 81.238281 183.230469 81.238281 183.230469 C 81.238281 183.230469 73.386719 182.039062 69.246094 183.734375 C 63.421875 186.105469 60.023438 193.671875 60.023438 193.671875 Z M 60.691406 170.039062 C 62.320312 174.117188 68.496094 178.859375 68.496094 178.859375 C 68.496094 178.859375 70.714844 173.402344 69.09375 166.125 C 67.796875 160.304688 61.421875 156.769531 61.421875 156.769531 C 61.421875 156.769531 58.398438 164.316406 60.691406 170.039062 Z M 44.273438 184.433594 C 44.273438 184.433594 50.765625 187.757812 56.3125 185.585938 C 63.238281 182.867188 66.515625 177.976562 66.515625 177.976562 C 66.515625 177.976562 59.136719 175.496094 54.851562 176.417969 C 48.832031 177.710938 44.273438 184.433594 44.273438 184.433594 Z M 48.625 161.597656 C 49.507812 165.8125 54.664062 171.441406 54.664062 171.441406 C 54.664062 171.441406 57.730469 166.550781 57.398438 159.25 C 57.132812 153.417969 51.589844 148.910156 51.589844 148.910156 C 51.589844 148.910156 47.382812 155.683594 48.625 161.597656 Z M 30.335938 172.695312 C 30.335938 172.695312 36.035156 177.007812 41.757812 175.851562 C 48.902344 174.410156 52.902344 170.253906 52.902344 170.253906 C 52.902344 170.253906 46.207031 166.597656 41.914062 166.757812 C 35.882812 166.976562 30.335938 172.695312 30.335938 172.695312 Z M 38.234375 151.125 C 38.375 155.34375 42.394531 161.652344 42.394531 161.652344 C 42.394531 161.652344 46.183594 157.457031 47.101562 150.359375 C 47.839844 144.683594 43.25 139.390625 43.25 139.390625 C 43.25 139.390625 38.046875 145.203125 38.234375 151.125 Z M 18.699219 158.707031 C 18.699219 158.707031 23.472656 163.84375 29.1875 163.699219 C 36.332031 163.527344 40.890625 160.195312 40.890625 160.195312 C 40.890625 160.195312 35.042969 155.527344 30.878906 154.953125 C 25.019531 154.140625 18.699219 158.707031 18.699219 158.707031 Z M 29.800781 139.050781 C 29.210938 143.148438 32.015625 149.917969 32.015625 149.917969 C 32.015625 149.917969 36.386719 146.511719 38.476562 139.824219 C 40.160156 134.46875 36.625 128.578125 36.625 128.578125 C 36.625 128.578125 30.617188 133.3125 29.800781 139.050781 Z M 9.652344 143.054688 C 9.652344 143.054688 13.378906 148.816406 18.921875 149.660156 C 25.847656 150.707031 30.8125 148.273438 30.8125 148.273438 C 30.8125 148.273438 25.964844 142.769531 22.042969 141.5 C 16.523438 139.714844 9.652344 143.054688 9.652344 143.054688 Z M 23.691406 125.785156 C 22.433594 129.632812 23.992188 136.652344 23.992188 136.652344 C 23.992188 136.652344 28.785156 134.105469 31.9375 128.003906 C 34.46875 123.121094 32.054688 116.839844 32.054688 116.839844 C 32.054688 116.839844 25.460938 120.382812 23.691406 125.785156 Z M 3.570312 126.199219 C 3.570312 126.199219 6.1875 132.40625 11.390625 134.164062 C 17.890625 136.359375 23.101562 134.855469 23.101562 134.855469 C 23.101562 134.855469 19.363281 128.722656 15.785156 126.824219 C 10.769531 124.160156 3.570312 126.199219 3.570312 126.199219 Z M 19.949219 111.742188 C 18.082031 115.246094 18.386719 122.289062 18.386719 122.289062 C 18.386719 122.289062 23.449219 120.648438 27.535156 115.292969 C 30.804688 111.019531 29.546875 104.539062 29.546875 104.539062 C 29.546875 104.539062 22.570312 106.820312 19.949219 111.742188 Z M 0.457031 108.710938 C 0.457031 108.710938 1.933594 115.144531 6.660156 117.726562 C 12.5625 120.957031 17.851562 120.390625 17.851562 120.390625 C 17.851562 120.390625 15.28125 113.828125 12.152344 111.390625 C 7.75 107.972656 0.457031 108.710938 0.457031 108.710938 Z M 18.710938 97.222656 C 16.3125 100.285156 15.40625 107.128906 15.40625 107.128906 C 15.40625 107.128906 20.5625 106.410156 25.421875 101.945312 C 29.304688 98.371094 29.195312 91.90625 29.195312 91.90625 C 29.195312 91.90625 22.074219 92.921875 18.710938 97.222656 Z M 0.410156 90.96875 C 0.410156 90.96875 0.738281 97.433594 4.859375 100.726562 C 10.007812 104.84375 15.203125 105.207031 15.203125 105.207031 C 15.203125 105.207031 13.835938 98.433594 11.234375 95.554688 C 7.578125 91.496094 0.410156 90.96875 0.410156 90.96875 Z M 19.972656 82.339844 C 17.136719 84.882812 15.109375 91.339844 15.109375 91.339844 C 15.109375 91.339844 20.210938 91.527344 25.648438 88.039062 C 30.011719 85.253906 30.996094 78.992188 30.996094 78.992188 C 30.996094 78.992188 23.953125 78.765625 19.972656 82.339844 Z M 3.371094 73.195312 C 3.371094 73.195312 2.59375 79.488281 6.007812 83.371094 C 10.273438 88.222656 15.234375 89.457031 15.234375 89.457031 C 15.234375 89.457031 15.070312 82.695312 13.042969 79.457031 C 10.203125 74.929688 3.371094 73.195312 3.371094 73.195312 Z M 23.835938 67.761719 C 20.667969 69.730469 17.609375 75.613281 17.609375 75.613281 C 17.609375 75.613281 22.496094 76.667969 28.347656 74.226562 C 33.023438 72.28125 35.042969 66.410156 35.042969 66.410156 C 35.042969 66.410156 28.273438 64.992188 23.835938 67.761719 Z M 9.363281 56.101562 C 9.363281 56.101562 7.546875 62.039062 10.1875 66.367188 C 13.480469 71.777344 18.054688 73.820312 18.054688 73.820312 C 18.054688 73.820312 19.046875 67.257812 17.640625 63.792969 C 15.667969 58.933594 9.363281 56.101562 9.363281 56.101562 Z M 30.226562 54.132812 C 26.835938 55.496094 22.890625 60.652344 22.890625 60.652344 C 22.890625 60.652344 27.433594 62.503906 33.488281 61.148438 C 38.335938 60.070312 41.277344 54.738281 41.277344 54.738281 C 41.277344 54.738281 34.988281 52.210938 30.226562 54.132812 Z M 18.246094 40.414062 C 18.246094 40.414062 15.476562 45.839844 17.285156 50.46875 C 19.550781 56.257812 23.621094 59 23.621094 59 C 23.621094 59 25.6875 52.832031 24.917969 49.257812 C 23.84375 44.226562 18.246094 40.414062 18.246094 40.414062 Z M 38.933594 41.871094 C 35.429688 42.609375 30.742188 46.910156 30.742188 46.910156 C 30.742188 46.910156 34.816406 49.46875 40.882812 49.195312 C 45.75 48.972656 49.492188 44.335938 49.492188 44.335938 C 49.492188 44.335938 43.863281 40.839844 38.933594 41.871094 Z M 29.699219 26.585938 C 29.699219 26.585938 26.105469 31.351562 27.074219 36.128906 C 28.273438 42.097656 31.734375 45.4375 31.734375 45.4375 C 31.734375 45.4375 34.777344 39.839844 34.640625 36.257812 C 34.460938 31.222656 29.699219 26.585938 29.699219 26.585938 Z M 49.546875 31.445312 C 46.03125 31.554688 40.78125 34.910156 40.78125 34.910156 C 40.78125 34.910156 44.273438 38.074219 50.183594 38.847656 C 54.914062 39.46875 59.316406 35.625 59.316406 35.625 C 59.316406 35.625 54.464844 31.289062 49.546875 31.445312 Z M 43.226562 15.121094 C 43.226562 15.121094 38.949219 19.105469 39.066406 23.886719 C 39.210938 29.847656 41.984375 33.664062 41.984375 33.664062 C 41.984375 33.664062 45.875 28.78125 46.355469 25.300781 C 47.03125 20.40625 43.226562 15.121094 43.226562 15.121094 Z M 61.722656 23.105469 C 58.320312 22.617188 52.675781 24.957031 52.675781 24.957031 C 52.675781 24.957031 55.511719 28.601562 61.085938 30.351562 C 65.542969 31.75 70.449219 28.800781 70.449219 28.800781 C 70.449219 28.800781 66.5 23.789062 61.722656 23.105469 Z M 58.398438 6.277344 C 58.398438 6.277344 53.59375 9.394531 52.894531 14.027344 C 52.023438 19.804688 54.050781 23.964844 54.050781 23.964844 C 54.050781 23.964844 58.632812 19.917969 59.6875 16.632812 C 61.171875 12.019531 58.398438 6.277344 58.398438 6.277344 Z M 74.9375 17.089844 C 71.730469 16.042969 65.886719 17.332031 65.886719 17.332031 C 65.886719 17.332031 68.003906 21.339844 73.082031 23.980469 C 77.144531 26.097656 82.378906 24.082031 82.378906 24.082031 C 82.378906 24.082031 79.425781 18.5625 74.9375 17.089844 Z M 74.582031 0.277344 C 74.582031 0.277344 69.417969 2.464844 67.957031 6.8125 C 66.132812 12.238281 67.382812 16.59375 67.382812 16.59375 C 67.382812 16.59375 72.492188 13.46875 74.0625 10.480469 C 76.28125 6.292969 74.582031 0.277344 74.582031 0.277344 Z M 74.808594 13.679688 C 74.808594 13.679688 78.675781 15.867188 82.105469 14.6875 C 86.386719 13.214844 88.511719 10.316406 88.511719 10.316406 C 88.511719 10.316406 84.085938 8.625 81.453125 9.066406 C 77.757812 9.703125 74.808594 13.679688 74.808594 13.679688 Z M 133.914062 162.820312 C 133.914062 162.820312 126.878906 165.242188 124.550781 170.859375 C 121.636719 177.882812 122.894531 183.757812 122.894531 183.757812 C 122.894531 183.757812 129.9375 180.085938 132.300781 176.285156 C 135.621094 170.945312 133.914062 162.820312 133.914062 162.820312 Z M 137.042969 183.734375 C 132.898438 182.046875 125.046875 183.230469 125.046875 183.230469 C 125.046875 183.230469 127.484375 188.726562 133.960938 192.6875 C 139.148438 195.859375 146.261719 193.671875 146.261719 193.671875 C 146.261719 193.671875 142.859375 186.105469 137.042969 183.734375 Z M 144.863281 156.761719 C 144.863281 156.761719 138.480469 160.296875 137.191406 166.117188 C 135.574219 173.394531 137.789062 178.851562 137.789062 178.851562 C 137.789062 178.851562 143.96875 174.109375 145.59375 170.03125 C 147.882812 164.316406 144.863281 156.761719 144.863281 156.761719 Z M 151.433594 176.410156 C 147.152344 175.488281 139.769531 177.96875 139.769531 177.96875 C 139.769531 177.96875 143.054688 182.859375 149.980469 185.578125 C 155.523438 187.75 162.015625 184.425781 162.015625 184.425781 C 162.015625 184.425781 157.449219 177.710938 151.433594 176.410156 Z M 154.695312 148.910156 C 154.695312 148.910156 149.148438 153.417969 148.886719 159.25 C 148.558594 166.550781 151.625 171.441406 151.625 171.441406 C 151.625 171.441406 156.78125 165.8125 157.660156 161.597656 C 158.894531 155.683594 154.695312 148.910156 154.695312 148.910156 Z M 164.375 166.757812 C 160.082031 166.597656 153.382812 170.253906 153.382812 170.253906 C 153.382812 170.253906 157.386719 174.410156 164.523438 175.851562 C 170.246094 177.007812 175.945312 172.695312 175.945312 172.695312 C 175.945312 172.695312 170.402344 166.976562 164.375 166.757812 Z M 163.039062 139.382812 C 163.039062 139.382812 158.4375 144.675781 159.183594 150.351562 C 160.105469 157.449219 163.894531 161.644531 163.894531 161.644531 C 163.894531 161.644531 167.910156 155.328125 168.050781 151.117188 C 168.234375 145.203125 163.039062 139.382812 163.039062 139.382812 Z M 175.402344 154.953125 C 171.234375 155.527344 165.386719 160.195312 165.386719 160.195312 C 165.386719 160.195312 169.953125 163.527344 177.09375 163.699219 C 182.804688 163.84375 187.578125 158.707031 187.578125 158.707031 C 187.578125 158.707031 181.257812 154.140625 175.402344 154.953125 Z M 169.65625 128.578125 C 169.65625 128.578125 166.117188 134.46875 167.792969 139.824219 C 169.890625 146.519531 174.253906 149.917969 174.253906 149.917969 C 174.253906 149.917969 177.058594 143.148438 176.472656 139.050781 C 175.660156 133.3125 169.65625 128.578125 169.65625 128.578125 Z M 184.238281 141.5 C 180.316406 142.769531 175.464844 148.273438 175.464844 148.273438 C 175.464844 148.273438 180.441406 150.714844 187.359375 149.660156 C 192.898438 148.816406 196.625 143.054688 196.625 143.054688 C 196.625 143.054688 189.753906 139.714844 184.238281 141.5 Z M 174.222656 116.839844 C 174.222656 116.839844 171.808594 123.121094 174.339844 128.003906 C 177.5 134.105469 182.289062 136.652344 182.289062 136.652344 C 182.289062 136.652344 183.84375 129.632812 182.585938 125.785156 C 180.816406 120.382812 174.222656 116.839844 174.222656 116.839844 Z M 190.484375 126.816406 C 186.910156 128.714844 183.175781 134.847656 183.175781 134.847656 C 183.175781 134.847656 188.386719 136.351562 194.886719 134.15625 C 200.09375 132.398438 202.710938 126.191406 202.710938 126.191406 C 202.710938 126.191406 195.507812 124.160156 190.484375 126.816406 Z M 176.738281 104.53125 C 176.738281 104.53125 175.480469 111.011719 178.75 115.285156 C 182.839844 120.640625 187.890625 122.28125 187.890625 122.28125 C 187.890625 122.28125 188.207031 115.238281 186.335938 111.734375 C 183.710938 106.820312 176.738281 104.53125 176.738281 104.53125 Z M 194.132812 111.398438 C 191.003906 113.835938 188.433594 120.398438 188.433594 120.398438 C 188.433594 120.398438 193.726562 120.957031 199.628906 117.734375 C 204.351562 115.152344 205.832031 108.71875 205.832031 108.71875 C 205.832031 108.71875 198.527344 107.972656 194.132812 111.398438 Z M 177.085938 91.898438 C 177.085938 91.898438 176.972656 98.363281 180.855469 101.9375 C 185.707031 106.402344 190.863281 107.121094 190.863281 107.121094 C 190.863281 107.121094 189.96875 100.277344 187.5625 97.214844 C 184.207031 92.921875 177.085938 91.898438 177.085938 91.898438 Z M 195.039062 95.554688 C 192.4375 98.433594 191.066406 105.207031 191.066406 105.207031 C 191.066406 105.207031 196.265625 104.84375 201.414062 100.726562 C 205.53125 97.425781 205.863281 90.96875 205.863281 90.96875 C 205.863281 90.96875 198.699219 91.496094 195.039062 95.554688 Z M 175.285156 78.992188 C 175.285156 78.992188 176.265625 85.253906 180.628906 88.039062 C 186.070312 91.527344 191.171875 91.339844 191.171875 91.339844 C 191.171875 91.339844 189.140625 84.890625 186.304688 82.339844 C 182.328125 78.765625 175.285156 78.992188 175.285156 78.992188 Z M 193.230469 79.457031 C 191.210938 82.683594 191.035156 89.457031 191.035156 89.457031 C 191.035156 89.457031 195.988281 88.222656 200.265625 83.371094 C 203.683594 79.488281 202.90625 73.195312 202.90625 73.195312 C 202.90625 73.195312 196.074219 74.929688 193.230469 79.457031 Z M 171.242188 66.410156 C 171.242188 66.410156 173.265625 72.28125 177.941406 74.226562 C 183.789062 76.667969 188.679688 75.613281 188.679688 75.613281 C 188.679688 75.613281 185.628906 69.730469 182.453125 67.761719 C 178.003906 64.992188 171.242188 66.410156 171.242188 66.410156 Z M 188.640625 63.800781 C 187.230469 67.265625 188.222656 73.828125 188.222656 73.828125 C 188.222656 73.828125 192.796875 71.792969 196.089844 66.378906 C 198.730469 62.046875 196.917969 56.109375 196.917969 56.109375 C 196.917969 56.109375 190.613281 58.933594 188.640625 63.800781 Z M 165.011719 54.738281 C 165.011719 54.738281 167.949219 60.0625 172.800781 61.148438 C 178.851562 62.503906 183.394531 60.652344 183.394531 60.652344 C 183.394531 60.652344 179.449219 55.496094 176.054688 54.132812 C 171.289062 52.210938 165.011719 54.738281 165.011719 54.738281 Z M 181.359375 49.25 C 180.589844 52.832031 182.65625 58.992188 182.65625 58.992188 C 182.65625 58.992188 186.730469 56.25 188.992188 50.460938 C 190.800781 45.832031 188.035156 40.40625 188.035156 40.40625 C 188.035156 40.40625 182.4375 44.226562 181.359375 49.25 Z M 156.789062 44.34375 C 156.789062 44.34375 160.539062 48.980469 165.394531 49.203125 C 171.472656 49.476562 175.535156 46.917969 175.535156 46.917969 C 175.535156 46.917969 170.84375 42.617188 167.34375 41.878906 C 162.425781 40.839844 156.789062 44.34375 156.789062 44.34375 Z M 171.636719 36.265625 C 171.503906 39.847656 174.546875 45.445312 174.546875 45.445312 C 174.546875 45.445312 178.003906 42.105469 179.207031 36.136719 C 180.164062 31.359375 176.582031 26.59375 176.582031 26.59375 C 176.582031 26.59375 171.816406 31.222656 171.636719 36.265625 Z M 146.960938 35.632812 C 146.960938 35.632812 151.371094 39.46875 156.097656 38.855469 C 162.007812 38.082031 165.496094 34.925781 165.496094 34.925781 C 165.496094 34.925781 160.246094 31.570312 156.734375 31.460938 C 151.804688 31.289062 146.960938 35.632812 146.960938 35.632812 Z M 159.925781 25.292969 C 160.402344 28.773438 164.285156 33.65625 164.285156 33.65625 C 164.285156 33.65625 167.0625 29.839844 167.203125 23.878906 C 167.320312 19.097656 163.046875 15.113281 163.046875 15.113281 C 163.046875 15.113281 159.25 20.40625 159.925781 25.292969 Z M 135.839844 28.808594 C 135.839844 28.808594 140.746094 31.761719 145.203125 30.359375 C 150.773438 28.609375 153.613281 24.964844 153.613281 24.964844 C 153.613281 24.964844 147.96875 22.625 144.566406 23.113281 C 139.777344 23.789062 135.839844 28.808594 135.839844 28.808594 Z M 146.59375 16.625 C 147.644531 19.902344 152.230469 23.957031 152.230469 23.957031 C 152.230469 23.957031 154.257812 19.796875 153.382812 14.019531 C 152.683594 9.386719 147.882812 6.269531 147.882812 6.269531 C 147.882812 6.269531 145.105469 12.019531 146.59375 16.625 Z M 123.898438 24.074219 C 123.898438 24.074219 129.132812 26.089844 133.199219 23.972656 C 138.285156 21.332031 140.390625 17.324219 140.390625 17.324219 C 140.390625 17.324219 134.550781 16.027344 131.34375 17.082031 C 126.855469 18.5625 123.898438 24.074219 123.898438 24.074219 Z M 132.214844 10.488281 C 133.796875 13.476562 138.90625 16.601562 138.90625 16.601562 C 138.90625 16.601562 140.15625 12.246094 138.332031 6.820312 C 136.871094 2.472656 131.703125 0.285156 131.703125 0.285156 C 131.703125 0.285156 130 6.292969 132.214844 10.488281 Z M 124.828125 9.066406 C 122.195312 8.617188 117.777344 10.316406 117.777344 10.316406 C 117.777344 10.316406 119.890625 13.214844 124.183594 14.6875 C 127.609375 15.867188 131.476562 13.679688 131.476562 13.679688 C 131.476562 13.679688 128.519531 9.703125 124.828125 9.066406 Z M 124.828125 9.066406 " fill-opacity="1" fill-rule="nonzero"/></g></g></g></g><g mask="url(#a03ad7852a)"><g transform="matrix(1, 0, 0, 1, 149, 96)"><g clip-path="url(#c8762ed6c0)"><g clip-path="url(#3a1d60cb83)"><path fill="#dcc053" d="M 28.484375 115.332031 C 28.511719 115.347656 28.539062 115.363281 28.566406 115.378906 C 28.566406 115.378906 8.019531 117.136719 1.839844 90.144531 C 0.292969 83.394531 0.101562 76.425781 1.09375 69.582031 C 2.832031 57.582031 10.230469 49.632812 10.230469 49.632812 C 7.671875 71.242188 31.089844 78.316406 31.089844 78.316406 C 30.386719 77.5 30.003906 77.042969 29.609375 76.597656 C 20.429688 66.144531 14.015625 54.425781 12.488281 40.640625 C 11.152344 28.558594 13.707031 17.351562 21.894531 7.792969 C 24.238281 5.054688 27.132812 2.75 29.773438 0.25 C 12.507812 25.574219 53.003906 48.378906 53.003906 48.378906 C 52.074219 47.269531 47.964844 40.261719 47.707031 39.824219 C 45.796875 36.078125 44.296875 32.175781 43.671875 27.96875 C 43.042969 23.761719 43.007812 19.5625 45.609375 15.429688 C 45.511719 21.921875 46.148438 23.859375 50.09375 28.914062 C 52.417969 31.890625 54.886719 34.761719 57.160156 37.769531 C 57.507812 38.230469 57.84375 38.691406 58.175781 39.152344 C 74.269531 63.300781 66.242188 83.3125 66.242188 83.3125 C 74.035156 72.921875 76.636719 63.277344 76.636719 63.277344 C 78.5625 68.753906 79.429688 74.070312 79.496094 79.523438 C 79.609375 88.917969 77.554688 97.707031 71.421875 105.265625 C 67.710938 109.835938 62.976562 112.992188 56.601562 114.644531 C 64.101562 106.539062 70.113281 98.273438 69.664062 87.175781 C 67.472656 89.484375 63.082031 93.132812 59.140625 95.609375 C 57.460938 96.664062 55.21875 95.636719 55.035156 93.710938 C 53.378906 76.105469 48.207031 61.253906 31.929688 51.710938 C 32.296875 53.039062 32.480469 53.734375 32.6875 54.421875 C 34.101562 59.125 35.699219 63.792969 36.902344 68.546875 C 38.496094 74.84375 39.785156 81.21875 38.460938 87.746094 C 37.554688 92.203125 35.003906 94.199219 30.316406 94.457031 C 24.746094 94.765625 20.023438 92.9375 15.90625 89.433594 C 15.191406 88.824219 14.484375 88.207031 13.484375 87.347656 C 16.519531 108.078125 27.480469 114.757812 28.484375 115.332031 Z M 28.484375 115.332031 " fill-opacity="1" fill-rule="nonzero"/></g></g></g></g><g fill="#dcc053" fill-opacity="1"><g transform="translate(52.13672, 182.138587)"><g><path d="M 17.9375 -17.25 C 17.9375 -16.25 17.734375 -15.320312 17.328125 -14.46875 C 16.578125 -12.851562 15.257812 -11.726562 13.375 -11.09375 C 12.71875 -10.863281 12.148438 -10.75 11.671875 -10.75 C 10.265625 -10.75 9.050781 -11.007812 8.03125 -11.53125 L 8.03125 -11.875 C 9.6875 -11.507812 11.21875 -11.691406 12.625 -12.421875 C 13.875 -13.054688 14.722656 -14.097656 15.171875 -15.546875 C 15.304688 -16.003906 15.375 -16.4375 15.375 -16.84375 C 15.375 -17.25 15.375 -17.5 15.375 -17.59375 C 15.332031 -19.175781 14.914062 -20.4375 14.125 -21.375 C 13.332031 -22.320312 12.21875 -22.796875 10.78125 -22.796875 L 6.875 -22.796875 L 6.875 -2.484375 C 6.894531 -1.890625 7.113281 -1.382812 7.53125 -0.96875 C 7.957031 -0.550781 8.460938 -0.34375 9.046875 -0.34375 L 9.5 -0.34375 L 9.5 0 L 2.046875 0 L 2.046875 -0.34375 L 2.484375 -0.34375 C 3.078125 -0.34375 3.582031 -0.550781 4 -0.96875 C 4.414062 -1.382812 4.632812 -1.890625 4.65625 -2.484375 L 4.65625 -21.5 C 4.59375 -22.070312 4.351562 -22.546875 3.9375 -22.921875 C 3.53125 -23.296875 3.046875 -23.484375 2.484375 -23.484375 L 2.078125 -23.484375 L 2.046875 -23.828125 L 10.921875 -23.828125 C 13.097656 -23.828125 14.8125 -23.238281 16.0625 -22.0625 C 17.3125 -20.894531 17.9375 -19.289062 17.9375 -17.25 Z M 17.9375 -17.25 "/></g></g></g><g fill="#dcc053" fill-opacity="1"><g transform="translate(71.765991, 182.138587)"><g><path d="M 9.046875 -22.765625 L 6.875 -22.765625 L 6.875 -2.484375 C 6.875 -1.890625 7.082031 -1.382812 7.5 -0.96875 C 7.925781 -0.550781 8.441406 -0.34375 9.046875 -0.34375 L 9.453125 -0.34375 L 9.5 0 L 2.046875 0 L 2.046875 -0.34375 L 2.484375 -0.34375 C 3.078125 -0.34375 3.582031 -0.546875 4 -0.953125 C 4.414062 -1.359375 4.632812 -1.859375 4.65625 -2.453125 L 4.65625 -21.34375 C 4.632812 -21.925781 4.414062 -22.425781 4 -22.84375 C 3.582031 -23.269531 3.078125 -23.484375 2.484375 -23.484375 L 2.046875 -23.484375 L 2.046875 -23.828125 L 11.234375 -23.828125 C 13.296875 -23.828125 14.914062 -23.253906 16.09375 -22.109375 C 17.269531 -20.960938 17.859375 -19.472656 17.859375 -17.640625 C 17.859375 -15.816406 17.296875 -14.238281 16.171875 -12.90625 C 15.054688 -11.582031 13.691406 -10.921875 12.078125 -10.921875 C 12.421875 -10.765625 12.820312 -10.453125 13.28125 -9.984375 C 13.75 -9.523438 14.164062 -9.046875 14.53125 -8.546875 C 16.476562 -5.753906 17.75 -4.035156 18.34375 -3.390625 C 18.9375 -2.742188 19.351562 -2.300781 19.59375 -2.0625 C 19.84375 -1.820312 20.113281 -1.585938 20.40625 -1.359375 C 20.707031 -1.128906 21.003906 -0.945312 21.296875 -0.8125 C 21.960938 -0.5 22.664062 -0.34375 23.40625 -0.34375 L 23.40625 0 L 21.546875 0 C 20.566406 0 19.65625 -0.175781 18.8125 -0.53125 C 17.976562 -0.882812 17.347656 -1.242188 16.921875 -1.609375 C 16.503906 -1.984375 16.140625 -2.347656 15.828125 -2.703125 C 15.523438 -3.054688 14.679688 -4.226562 13.296875 -6.21875 C 11.921875 -8.21875 11.117188 -9.359375 10.890625 -9.640625 C 10.660156 -9.929688 10.421875 -10.210938 10.171875 -10.484375 C 9.453125 -11.253906 8.726562 -11.640625 8 -11.640625 L 8 -11.984375 C 8.175781 -11.953125 8.410156 -11.9375 8.703125 -11.9375 C 9.003906 -11.9375 9.367188 -11.953125 9.796875 -11.984375 C 12.609375 -12.046875 14.378906 -13.222656 15.109375 -15.515625 C 15.242188 -15.972656 15.3125 -16.398438 15.3125 -16.796875 C 15.3125 -17.191406 15.3125 -17.445312 15.3125 -17.5625 C 15.269531 -19.082031 14.875 -20.304688 14.125 -21.234375 C 13.375 -22.160156 12.363281 -22.660156 11.09375 -22.734375 C 10.550781 -22.753906 9.867188 -22.765625 9.046875 -22.765625 Z M 9.046875 -22.765625 "/></g></g></g><g fill="#dcc053" fill-opacity="1"><g transform="translate(94.797213, 182.138587)"><g><path d="M 5 -20.875 C 7.425781 -23.15625 10.570312 -24.296875 14.4375 -24.296875 C 18.3125 -24.296875 21.460938 -23.15625 23.890625 -20.875 C 26.316406 -18.59375 27.53125 -15.601562 27.53125 -11.90625 C 27.53125 -8.207031 26.316406 -5.21875 23.890625 -2.9375 C 21.460938 -0.664062 18.3125 0.46875 14.4375 0.46875 C 10.570312 0.46875 7.425781 -0.664062 5 -2.9375 C 2.570312 -5.21875 1.359375 -8.207031 1.359375 -11.90625 C 1.359375 -15.601562 2.570312 -18.59375 5 -20.875 Z M 6.859375 -3.671875 C 8.773438 -1.585938 11.296875 -0.546875 14.421875 -0.546875 C 17.554688 -0.546875 20.082031 -1.585938 22 -3.671875 C 23.914062 -5.765625 24.875 -8.507812 24.875 -11.90625 C 24.875 -15.3125 23.914062 -18.054688 22 -20.140625 C 20.082031 -22.234375 17.554688 -23.28125 14.421875 -23.28125 C 11.296875 -23.28125 8.773438 -22.234375 6.859375 -20.140625 C 4.941406 -18.054688 3.984375 -15.3125 3.984375 -11.90625 C 3.984375 -8.507812 4.941406 -5.765625 6.859375 -3.671875 Z M 6.859375 -3.671875 "/></g></g></g><g fill="#dcc053" fill-opacity="1"><g transform="translate(123.645775, 182.138587)"><g><path d="M 16.0625 -23.453125 L 16.0625 -20.59375 L 15.71875 -20.59375 L 15.71875 -21.09375 C 15.71875 -21.550781 15.554688 -21.941406 15.234375 -22.265625 C 14.921875 -22.597656 14.53125 -22.765625 14.0625 -22.765625 L 6.875 -22.765625 L 6.875 -12.25 L 12.625 -12.25 C 13.082031 -12.269531 13.46875 -12.4375 13.78125 -12.75 C 14.101562 -13.070312 14.265625 -13.460938 14.265625 -13.921875 L 14.265625 -14.421875 L 14.59375 -14.421875 L 14.59375 -9.046875 L 14.265625 -9.046875 L 14.265625 -9.5625 C 14.265625 -10.019531 14.109375 -10.40625 13.796875 -10.71875 C 13.492188 -11.039062 13.113281 -11.210938 12.65625 -11.234375 L 6.875 -11.234375 L 6.875 -2.484375 C 6.875 -1.890625 7.085938 -1.382812 7.515625 -0.96875 C 7.953125 -0.550781 8.460938 -0.34375 9.046875 -0.34375 L 9.5 -0.34375 L 9.5 0 L 2.046875 0 L 2.046875 -0.34375 L 2.484375 -0.34375 C 3.078125 -0.34375 3.582031 -0.550781 4 -0.96875 C 4.414062 -1.382812 4.632812 -1.890625 4.65625 -2.484375 L 4.65625 -21.546875 C 4.65625 -22.085938 4.429688 -22.546875 3.984375 -22.921875 C 3.546875 -23.296875 3.046875 -23.484375 2.484375 -23.484375 L 2.078125 -23.484375 L 2.046875 -23.828125 L 12.015625 -23.828125 C 12.710938 -23.828125 13.472656 -23.894531 14.296875 -24.03125 C 15.128906 -24.164062 15.71875 -24.300781 16.0625 -24.4375 Z M 16.0625 -23.453125 "/></g></g></g><g fill="#dcc053" fill-opacity="1"><g transform="translate(142.050333, 182.138587)"><g><path d="M 2.484375 -0.34375 C 3.078125 -0.34375 3.582031 -0.550781 4 -0.96875 C 4.414062 -1.382812 4.632812 -1.890625 4.65625 -2.484375 L 4.65625 -21.546875 C 4.65625 -22.085938 4.441406 -22.546875 4.015625 -22.921875 C 3.585938 -23.296875 3.078125 -23.484375 2.484375 -23.484375 L 2.078125 -23.484375 L 2.046875 -23.828125 L 12.015625 -23.828125 C 12.710938 -23.828125 13.472656 -23.894531 14.296875 -24.03125 C 15.128906 -24.164062 15.71875 -24.300781 16.0625 -24.4375 L 16.0625 -20.140625 L 15.71875 -20.140625 L 15.71875 -20.765625 C 15.71875 -21.304688 15.53125 -21.769531 15.15625 -22.15625 C 14.78125 -22.539062 14.332031 -22.742188 13.8125 -22.765625 L 6.875 -22.765625 L 6.875 -12.25 L 12.625 -12.25 C 13.082031 -12.269531 13.46875 -12.4375 13.78125 -12.75 C 14.101562 -13.070312 14.265625 -13.472656 14.265625 -13.953125 L 14.265625 -14.421875 L 14.59375 -14.421875 L 14.59375 -9.046875 L 14.265625 -9.046875 L 14.265625 -9.5625 C 14.265625 -10.019531 14.109375 -10.40625 13.796875 -10.71875 C 13.492188 -11.039062 13.113281 -11.210938 12.65625 -11.234375 L 6.875 -11.234375 L 6.875 -1.0625 L 11.734375 -1.0625 C 13.421875 -1.0625 14.703125 -1.429688 15.578125 -2.171875 C 16.460938 -2.921875 17.203125 -4.035156 17.796875 -5.515625 L 18.140625 -5.515625 L 16.171875 0 L 2.046875 0 L 2.046875 -0.34375 Z M 2.484375 -0.34375 "/></g></g></g><g fill="#dcc053" fill-opacity="1"><g transform="translate(161.679604, 182.138587)"><g><path d="M 20.046875 -20.796875 C 20.046875 -21.335938 19.851562 -21.804688 19.46875 -22.203125 C 19.082031 -22.597656 18.628906 -22.804688 18.109375 -22.828125 L 11.640625 -22.828125 L 11.640625 -2.453125 C 11.660156 -1.859375 11.878906 -1.359375 12.296875 -0.953125 C 12.722656 -0.546875 13.226562 -0.34375 13.8125 -0.34375 L 14.265625 -0.34375 L 14.265625 0 L 6.8125 0 L 6.8125 -0.34375 L 7.25 -0.34375 C 7.84375 -0.34375 8.347656 -0.546875 8.765625 -0.953125 C 9.179688 -1.359375 9.398438 -1.847656 9.421875 -2.421875 L 9.421875 -22.828125 L 2.953125 -22.828125 C 2.410156 -22.804688 1.953125 -22.597656 1.578125 -22.203125 C 1.203125 -21.804688 1.015625 -21.335938 1.015625 -20.796875 L 1.015625 -20.21875 L 0.6875 -20.1875 L 0.6875 -24.46875 C 1.019531 -24.332031 1.601562 -24.195312 2.4375 -24.0625 C 3.28125 -23.925781 4.054688 -23.859375 4.765625 -23.859375 L 16.265625 -23.859375 C 17.378906 -23.859375 18.300781 -23.941406 19.03125 -24.109375 C 19.769531 -24.273438 20.222656 -24.394531 20.390625 -24.46875 L 20.390625 -20.1875 L 20.046875 -20.21875 Z M 20.046875 -20.796875 "/></g></g></g><g fill="#dcc053" fill-opacity="1"><g transform="translate(182.70367, 182.138587)"><g><path d="M 2.484375 -0.34375 C 3.078125 -0.34375 3.582031 -0.550781 4 -0.96875 C 4.414062 -1.382812 4.632812 -1.890625 4.65625 -2.484375 L 4.65625 -21.375 C 4.632812 -21.957031 4.414062 -22.453125 4 -22.859375 C 3.582031 -23.273438 3.078125 -23.484375 2.484375 -23.484375 L 2.046875 -23.484375 L 2.046875 -23.828125 L 9.5 -23.828125 L 9.5 -23.484375 L 9.046875 -23.484375 C 8.460938 -23.484375 7.957031 -23.273438 7.53125 -22.859375 C 7.113281 -22.453125 6.894531 -21.957031 6.875 -21.375 L 6.875 -2.484375 C 6.875 -1.890625 7.085938 -1.382812 7.515625 -0.96875 C 7.953125 -0.550781 8.460938 -0.34375 9.046875 -0.34375 L 9.5 -0.34375 L 9.5 0 L 2.046875 0 L 2.046875 -0.34375 Z M 2.484375 -0.34375 "/></g></g></g><g fill="#dcc053" fill-opacity="1"><g transform="translate(194.202269, 182.138587)"><g><path d="M 2.859375 -20.796875 L 2.859375 -20.1875 L 2.515625 -20.1875 L 2.515625 -24.46875 C 2.859375 -24.332031 3.457031 -24.195312 4.3125 -24.0625 C 5.175781 -23.925781 5.773438 -23.859375 6.109375 -23.859375 C 6.441406 -23.859375 6.617188 -23.859375 6.640625 -23.859375 L 16.125 -23.859375 C 17.238281 -23.859375 18.085938 -23.921875 18.671875 -24.046875 C 19.265625 -24.171875 19.617188 -24.253906 19.734375 -24.296875 L 19.734375 -23.984375 L 5.171875 -1.015625 L 16 -1.015625 C 17.195312 -1.015625 18.1875 -1.398438 18.96875 -2.171875 C 19.75 -2.941406 20.3125 -3.960938 20.65625 -5.234375 L 21 -5.234375 L 19.875 0 L 2.046875 0 L 2.046875 -0.3125 L 16.328125 -22.828125 L 4.859375 -22.828125 C 4.296875 -22.804688 3.820312 -22.601562 3.4375 -22.21875 C 3.050781 -21.832031 2.859375 -21.359375 2.859375 -20.796875 Z M 2.859375 -20.796875 "/></g></g></g><g fill="#dcc053" fill-opacity="1"><g transform="translate(216.348977, 182.138587)"><g><path d="M 24.359375 -0.34375 L 24.640625 -0.34375 L 24.640625 0 L 16.984375 0 L 16.984375 -0.34375 L 17.28125 -0.34375 C 17.757812 -0.34375 18.117188 -0.492188 18.359375 -0.796875 C 18.597656 -1.109375 18.71875 -1.398438 18.71875 -1.671875 C 18.71875 -1.941406 18.671875 -2.210938 18.578125 -2.484375 L 16.40625 -8.265625 L 7.21875 -8.265625 L 4.9375 -2.453125 C 4.84375 -2.179688 4.796875 -1.914062 4.796875 -1.65625 C 4.796875 -1.394531 4.914062 -1.109375 5.15625 -0.796875 C 5.394531 -0.492188 5.75 -0.34375 6.21875 -0.34375 L 6.53125 -0.34375 L 6.53125 0 L -0.3125 0 L -0.3125 -0.34375 L 0 -0.34375 C 0.5625 -0.34375 1.113281 -0.519531 1.65625 -0.875 C 2.207031 -1.238281 2.648438 -1.773438 2.984375 -2.484375 L 10.6875 -20.796875 C 11.519531 -22.628906 11.9375 -23.796875 11.9375 -24.296875 L 12.25 -24.296875 L 21.375 -2.484375 C 21.6875 -1.773438 22.113281 -1.238281 22.65625 -0.875 C 23.207031 -0.519531 23.773438 -0.34375 24.359375 -0.34375 Z M 7.625 -9.296875 L 15.984375 -9.296875 L 11.90625 -20.21875 Z M 7.625 -9.296875 "/></g></g></g><g fill="#dcc053" fill-opacity="1"><g transform="translate(240.570876, 182.138587)"><g><path d="M 26.46875 -23.484375 C 25.90625 -23.484375 25.421875 -23.285156 25.015625 -22.890625 C 24.609375 -22.492188 24.390625 -22.007812 24.359375 -21.4375 L 24.359375 -3.875 C 24.359375 -2.5625 24.441406 -1.316406 24.609375 -0.140625 L 24.671875 0.46875 L 24.359375 0.46875 L 5.8125 -19.328125 L 5.8125 -2.375 C 5.8125 -1.8125 6.015625 -1.332031 6.421875 -0.9375 C 6.835938 -0.539062 7.328125 -0.34375 7.890625 -0.34375 L 8.546875 -0.34375 L 8.546875 0 L 1.53125 0 L 1.53125 -0.34375 L 2.171875 -0.34375 C 2.742188 -0.34375 3.234375 -0.539062 3.640625 -0.9375 C 4.046875 -1.332031 4.25 -1.828125 4.25 -2.421875 L 4.25 -20.078125 C 4.25 -21.460938 4.171875 -22.695312 4.015625 -23.78125 L 3.953125 -24.328125 L 4.28125 -24.328125 L 22.828125 -4.53125 L 22.828125 -21.40625 C 22.804688 -22 22.59375 -22.492188 22.1875 -22.890625 C 21.78125 -23.285156 21.289062 -23.484375 20.71875 -23.484375 L 20.078125 -23.484375 L 20.078125 -23.828125 L 27.09375 -23.828125 L 27.09375 -23.484375 Z M 26.46875 -23.484375 "/></g></g></g><g fill="#dcc053" fill-opacity="1"><g transform="translate(269.181299, 182.138587)"><g><path d="M 13.578125 -23.828125 C 17.203125 -23.828125 20.144531 -22.726562 22.40625 -20.53125 C 24.664062 -18.34375 25.796875 -15.46875 25.796875 -11.90625 C 25.796875 -8.34375 24.664062 -5.46875 22.40625 -3.28125 C 20.144531 -1.09375 17.203125 0 13.578125 0 L 2.046875 0 L 2.046875 -0.34375 L 2.484375 -0.34375 C 3.078125 -0.34375 3.582031 -0.550781 4 -0.96875 C 4.414062 -1.382812 4.632812 -1.890625 4.65625 -2.484375 L 4.65625 -21.546875 C 4.65625 -22.085938 4.429688 -22.546875 3.984375 -22.921875 C 3.546875 -23.296875 3.046875 -23.484375 2.484375 -23.484375 L 2.078125 -23.484375 L 2.046875 -23.828125 Z M 6.875 -22.796875 L 6.875 -1.015625 L 13.578125 -1.015625 C 15.484375 -1.015625 17.164062 -1.46875 18.625 -2.375 C 20.09375 -3.289062 21.226562 -4.566406 22.03125 -6.203125 C 22.84375 -7.847656 23.25 -9.75 23.25 -11.90625 C 23.25 -15.175781 22.359375 -17.804688 20.578125 -19.796875 C 18.796875 -21.796875 16.460938 -22.796875 13.578125 -22.796875 Z M 6.875 -22.796875 "/></g></g></g><g fill="#dcc053" fill-opacity="1"><g transform="translate(296.635055, 182.138587)"><g><path d="M 5 -20.875 C 7.425781 -23.15625 10.570312 -24.296875 14.4375 -24.296875 C 18.3125 -24.296875 21.460938 -23.15625 23.890625 -20.875 C 26.316406 -18.59375 27.53125 -15.601562 27.53125 -11.90625 C 27.53125 -8.207031 26.316406 -5.21875 23.890625 -2.9375 C 21.460938 -0.664062 18.3125 0.46875 14.4375 0.46875 C 10.570312 0.46875 7.425781 -0.664062 5 -2.9375 C 2.570312 -5.21875 1.359375 -8.207031 1.359375 -11.90625 C 1.359375 -15.601562 2.570312 -18.59375 5 -20.875 Z M 6.859375 -3.671875 C 8.773438 -1.585938 11.296875 -0.546875 14.421875 -0.546875 C 17.554688 -0.546875 20.082031 -1.585938 22 -3.671875 C 23.914062 -5.765625 24.875 -8.507812 24.875 -11.90625 C 24.875 -15.3125 23.914062 -18.054688 22 -20.140625 C 20.082031 -22.234375 17.554688 -23.28125 14.421875 -23.28125 C 11.296875 -23.28125 8.773438 -22.234375 6.859375 -20.140625 C 4.941406 -18.054688 3.984375 -15.3125 3.984375 -11.90625 C 3.984375 -8.507812 4.941406 -5.765625 6.859375 -3.671875 Z M 6.859375 -3.671875 "/></g></g></g><g fill="#ffffff" fill-opacity="1"><g transform="translate(124.817727, 209.601022)"><g><path d="M 1.28125 0 L 1.96875 0 L 1.96875 -6.660156 L 4.9375 -2.207031 L 5.503906 -2.207031 L 8.472656 -6.660156 L 8.472656 0 L 9.152344 0 L 9.152344 -7.925781 L 8.515625 -7.925781 L 5.222656 -2.96875 L 1.925781 -7.925781 L 1.28125 -7.925781 Z M 1.28125 0 "/></g></g></g><g fill="#ffffff" fill-opacity="1"><g transform="translate(144.307914, 209.601022)"><g><path d="M 1.28125 0 L 1.96875 0 L 1.96875 -7.925781 L 1.28125 -7.925781 Z M 1.28125 0 "/></g></g></g><g fill="#ffffff" fill-opacity="1"><g transform="translate(156.620996, 209.601022)"><g><path d="M 1.28125 0 L 5.992188 0 L 5.992188 -0.65625 L 1.96875 -0.65625 L 1.96875 -7.925781 L 1.28125 -7.925781 Z M 1.28125 0 "/></g></g></g><g fill="#ffffff" fill-opacity="1"><g transform="translate(172.0585, 209.601022)"><g><path d="M 0.25 0 L 0.984375 0 L 1.800781 -1.992188 L 5.921875 -1.992188 L 6.75 0 L 7.472656 0 L 4.191406 -7.925781 L 3.535156 -7.925781 Z M 2.074219 -2.628906 L 3.863281 -6.988281 L 5.664062 -2.628906 Z M 2.074219 -2.628906 "/></g></g></g><g fill="#ffffff" fill-opacity="1"><g transform="translate(188.854438, 209.601022)"><g><path d="M 4.734375 0.148438 C 7.144531 0.148438 8.753906 -1.652344 8.730469 -4.167969 L 4.484375 -4.167969 L 4.484375 -3.511719 L 7.996094 -3.511719 C 7.847656 -1.777344 6.589844 -0.542969 4.746094 -0.542969 C 2.785156 -0.542969 1.425781 -1.9375 1.425781 -3.964844 C 1.425781 -5.992188 2.773438 -7.382812 4.746094 -7.382812 C 6.160156 -7.382812 7.246094 -6.660156 7.746094 -5.480469 L 8.492188 -5.480469 C 7.984375 -7.023438 6.546875 -8.074219 4.710938 -8.074219 C 2.390625 -8.074219 0.726562 -6.363281 0.726562 -3.964844 C 0.726562 -1.5625 2.390625 0.148438 4.734375 0.148438 Z M 4.734375 0.148438 "/></g></g></g><g fill="#ffffff" fill-opacity="1"><g transform="translate(207.337108, 209.601022)"><g><path d="M 1.28125 0 L 1.96875 0 L 1.96875 -2.976562 L 4.019531 -2.976562 L 6.148438 0 L 6.976562 0 L 4.824219 -3.035156 C 6.070312 -3.25 6.851562 -4.144531 6.851562 -5.457031 C 6.851562 -6.964844 5.808594 -7.925781 4.214844 -7.925781 L 1.28125 -7.925781 Z M 1.96875 -3.636719 L 1.96875 -7.269531 L 4.144531 -7.269531 C 5.402344 -7.269531 6.148438 -6.578125 6.148438 -5.457031 C 6.148438 -4.324219 5.402344 -3.636719 4.144531 -3.636719 Z M 1.96875 -3.636719 "/></g></g></g><g fill="#ffffff" fill-opacity="1"><g transform="translate(224.144369, 209.601022)"><g><path d="M 1.28125 0 L 6.070312 0 L 6.070312 -0.644531 L 1.96875 -0.644531 L 1.96875 -3.726562 L 5.652344 -3.726562 L 5.652344 -4.359375 L 1.96875 -4.359375 L 1.96875 -7.28125 L 5.945312 -7.28125 L 5.945312 -7.925781 L 1.28125 -7.925781 Z M 1.28125 0 "/></g></g></g><g fill="#ffffff" fill-opacity="1"><g transform="translate(240.102605, 209.601022)"><g><path d="M 3.828125 0.148438 C 5.550781 0.148438 6.636719 -0.691406 6.636719 -2.015625 C 6.636719 -3.148438 5.867188 -3.851562 3.863281 -4.316406 C 2.195312 -4.6875 1.609375 -5.175781 1.609375 -5.96875 C 1.609375 -6.839844 2.355469 -7.417969 3.636719 -7.417969 C 4.960938 -7.417969 5.765625 -6.785156 5.820312 -5.664062 L 6.5 -5.664062 C 6.445312 -7.191406 5.378906 -8.074219 3.636719 -8.074219 C 1.949219 -8.074219 0.917969 -7.238281 0.917969 -5.96875 C 0.917969 -4.777344 1.742188 -4.121094 3.691406 -3.667969 C 5.289062 -3.316406 5.933594 -2.832031 5.933594 -2.003906 C 5.933594 -1.085938 5.128906 -0.507812 3.828125 -0.507812 C 2.457031 -0.507812 1.539062 -1.1875 1.472656 -2.355469 L 0.792969 -2.355469 C 0.847656 -0.828125 2.015625 0.148438 3.828125 0.148438 Z M 3.828125 0.148438 "/></g></g></g></svg>